<svg xmlns="http://www.w3.org/2000/svg" xmlns:xlink="http://www.w3.org/1999/xlink" zoomAndPan="magnify" preserveAspectRatio="xMidYMid meet" version="1.0" viewBox="0 120.63 341.97 133.72"><defs><g/><clipPath id="3320dc611c"><path d="M 0 120.628906 L 106.5 120.628906 L 106.5 254.128906 L 0 254.128906 Z M 0 120.628906 " clip-rule="nonzero"/></clipPath></defs><g clip-path="url(#3320dc611c)"><path fill="#ffffff" d="M 106.136719 250.894531 C 106.136719 252.804688 104.59375 254.351562 102.675781 254.351562 L 3.578125 254.351562 C 1.667969 254.351562 0.117188 252.804688 0.117188 250.894531 L 0.117188 124.101562 C 0.117188 122.183594 1.667969 120.636719 3.578125 120.636719 L 102.675781 120.636719 C 104.59375 120.636719 106.136719 122.183594 106.136719 124.101562 L 106.136719 250.894531 " fill-opacity="1" fill-rule="nonzero"/></g><path fill="#ffffff" d="M 99.792969 243.300781 C 99.792969 244.988281 98.429688 246.347656 96.742188 246.347656 L 9.511719 246.347656 C 7.824219 246.347656 6.460938 244.988281 6.460938 243.300781 L 6.460938 131.691406 C 6.460938 130.003906 7.824219 128.640625 9.511719 128.640625 L 96.742188 128.640625 C 98.429688 128.640625 99.792969 130.003906 99.792969 131.691406 L 99.792969 243.300781 " fill-opacity="1" fill-rule="nonzero"/><path fill="#5271ff" d="M 13.285156 163.816406 C 11.988281 163.816406 10.9375 162.757812 10.9375 161.460938 L 10.9375 139.84375 C 10.9375 137.113281 13.152344 134.890625 15.882812 134.890625 L 32.578125 134.890625 C 33.875 134.890625 34.925781 135.949219 34.925781 137.246094 C 34.925781 138.542969 33.875 139.589844 32.578125 139.589844 L 15.882812 139.589844 C 15.742188 139.589844 15.636719 139.703125 15.636719 139.84375 L 15.636719 161.460938 C 15.636719 162.757812 14.582031 163.816406 13.285156 163.816406 " fill-opacity="1" fill-rule="nonzero"/><path fill="#5271ff" d="M 33.363281 240.097656 L 15.882812 240.097656 C 13.152344 240.097656 10.9375 237.875 10.9375 235.144531 L 10.9375 215.488281 C 10.9375 214.1875 11.988281 213.132812 13.285156 213.132812 C 14.582031 213.132812 15.636719 214.1875 15.636719 215.488281 L 15.636719 235.144531 C 15.636719 235.285156 15.742188 235.398438 15.882812 235.398438 L 33.363281 235.398438 C 34.660156 235.398438 35.707031 236.449219 35.707031 237.746094 C 35.707031 239.042969 34.660156 240.097656 33.363281 240.097656 " fill-opacity="1" fill-rule="nonzero"/><path fill="#5271ff" d="M 90.371094 240.097656 L 74.460938 240.097656 C 73.167969 240.097656 72.113281 239.042969 72.113281 237.746094 C 72.113281 236.449219 73.167969 235.398438 74.460938 235.398438 L 90.371094 235.398438 C 90.511719 235.398438 90.625 235.285156 90.625 235.144531 L 90.625 218.222656 C 90.625 216.929688 91.679688 215.875 92.976562 215.875 C 94.273438 215.875 95.324219 216.929688 95.324219 218.222656 L 95.324219 235.144531 C 95.324219 237.875 93.101562 240.097656 90.371094 240.097656 " fill-opacity="1" fill-rule="nonzero"/><path fill="#5271ff" d="M 92.976562 164.988281 C 91.679688 164.988281 90.625 163.933594 90.625 162.640625 L 90.625 139.84375 C 90.625 139.703125 90.511719 139.589844 90.371094 139.589844 L 74.851562 139.589844 C 73.550781 139.589844 72.503906 138.542969 72.503906 137.246094 C 72.503906 135.949219 73.550781 134.890625 74.851562 134.890625 L 90.371094 134.890625 C 93.101562 134.890625 95.324219 137.113281 95.324219 139.84375 L 95.324219 162.640625 C 95.324219 163.933594 94.273438 164.988281 92.976562 164.988281 " fill-opacity="1" fill-rule="nonzero"/><path fill="#5271ff" d="M 48.539062 207.808594 L 49.523438 207.792969 C 58.082031 207.609375 63.050781 205.910156 65.179688 202.4375 C 67.578125 198.515625 65.378906 193.992188 63.777344 190.695312 L 63.722656 190.585938 C 59.914062 182.730469 56.292969 179.152344 52.308594 179.328125 C 48.746094 179.488281 45.832031 182.667969 43.410156 189.046875 C 42.636719 191.070312 41.824219 194.015625 43.570312 196.238281 C 45.515625 198.703125 49.371094 198.746094 55.386719 197.984375 C 56.671875 197.820312 57.578125 196.648438 57.417969 195.363281 C 57.253906 194.070312 56.082031 193.160156 54.789062 193.328125 C 48.761719 194.09375 47.507812 193.582031 47.265625 193.351562 C 47.265625 193.34375 47.035156 192.738281 47.800781 190.714844 C 49.648438 185.851562 51.445312 184.070312 52.515625 184.023438 C 53.003906 184.003906 55.46875 184.328125 59.496094 192.636719 L 59.554688 192.75 C 60.746094 195.203125 62.226562 198.257812 61.167969 199.988281 C 60.507812 201.070312 58.105469 202.914062 49.425781 203.089844 L 48.445312 203.117188 C 34.929688 203.386719 29.875 203.492188 27.5 216.867188 C 27.269531 218.140625 28.125 219.359375 29.398438 219.585938 C 29.539062 219.613281 29.675781 219.625 29.8125 219.625 C 30.933594 219.625 31.921875 218.824219 32.125 217.6875 C 33.167969 211.808594 34.359375 210.089844 35.933594 209.230469 C 38.136719 208.019531 42.269531 207.9375 48.539062 207.808594 " fill-opacity="1" fill-rule="nonzero"/><path fill="#5271ff" d="M 79.011719 214.078125 C 75.929688 213.792969 74.054688 210.679688 73.289062 209.101562 C 75.941406 203.550781 73.894531 195.515625 72.804688 192.714844 C 71.058594 188.25 66.507812 180.347656 63.898438 176.78125 C 60.574219 172.234375 57.007812 169.847656 53.292969 169.6875 C 49.90625 169.546875 46.609375 171.261719 43.527344 174.800781 C 41.0625 177.636719 35.046875 186.339844 34.523438 187.105469 C 31.066406 191.722656 33.964844 197.1875 35.984375 199.441406 C 36.851562 200.410156 38.339844 200.484375 39.300781 199.617188 C 40.265625 198.757812 40.347656 197.273438 39.480469 196.304688 C 39.445312 196.269531 36.234375 192.625 38.296875 189.894531 C 38.320312 189.867188 38.34375 189.835938 38.363281 189.8125 C 38.425781 189.71875 44.71875 180.589844 47.070312 177.882812 C 49.164062 175.484375 51.175781 174.304688 53.089844 174.382812 C 55.304688 174.476562 57.667969 176.222656 60.109375 179.558594 C 62.539062 182.878906 66.855469 190.390625 68.429688 194.421875 C 69.773438 197.867188 70.792969 204.464844 68.71875 207.679688 C 67.875 208.988281 66.578125 209.644531 64.65625 209.75 C 59.789062 209.867188 43.941406 210.292969 41.5 211.023438 C 38.160156 212.019531 35.878906 216.105469 35.390625 221.949219 C 35.285156 223.242188 36.246094 224.378906 37.535156 224.484375 C 37.601562 224.492188 37.671875 224.492188 37.738281 224.492188 C 38.945312 224.492188 39.972656 223.566406 40.070312 222.339844 C 40.449219 217.863281 41.96875 215.78125 42.832031 215.527344 C 44.292969 215.136719 55.148438 214.671875 64.796875 214.441406 L 64.867188 214.441406 C 67.074219 214.332031 68.753906 213.707031 70.019531 212.878906 C 71.554688 215.320312 74.289062 218.359375 78.578125 218.757812 C 78.648438 218.765625 78.722656 218.765625 78.792969 218.765625 C 79.992188 218.765625 81.019531 217.855469 81.128906 216.636719 C 81.253906 215.34375 80.304688 214.199219 79.011719 214.078125 " fill-opacity="1" fill-rule="nonzero"/><path fill="#5271ff" d="M 67.699219 224.625 C 61.363281 219.972656 52.140625 221 46.699219 226.957031 C 45.820312 227.910156 45.886719 229.394531 46.847656 230.269531 C 47.300781 230.683594 47.867188 230.886719 48.433594 230.886719 C 49.070312 230.886719 49.699219 230.628906 50.167969 230.121094 C 53.945312 225.980469 60.570312 225.214844 64.921875 228.410156 C 65.964844 229.179688 67.433594 228.953125 68.199219 227.910156 C 68.972656 226.859375 68.746094 225.394531 67.699219 224.625 " fill-opacity="1" fill-rule="nonzero"/><path fill="#5271ff" d="M 58.292969 215.574219 C 49.640625 215.871094 42.960938 219.390625 39.476562 225.480469 C 38.832031 226.605469 39.222656 228.039062 40.347656 228.683594 C 40.714844 228.894531 41.117188 228.996094 41.511719 228.996094 C 42.332031 228.996094 43.121094 228.570312 43.558594 227.808594 C 47.117188 221.570312 54.417969 220.402344 58.453125 220.269531 C 65.933594 220.007812 71.84375 222.605469 72.78125 224.011719 C 73.5 225.09375 74.957031 225.386719 76.035156 224.660156 C 77.121094 223.941406 77.410156 222.484375 76.691406 221.40625 C 74.332031 217.863281 66.253906 215.304688 58.292969 215.574219 " fill-opacity="1" fill-rule="nonzero"/><path fill="#5271ff" d="M 83.90625 208.6875 C 81.878906 208.273438 81.332031 207.261719 81.175781 206.789062 C 82.46875 198.175781 80.179688 191.109375 78.6875 187.636719 C 76.402344 182.324219 67.949219 167.972656 67.589844 167.363281 C 67.554688 167.300781 67.515625 167.242188 67.472656 167.175781 C 63.179688 161.253906 58.480469 158.253906 53.5 158.253906 L 53.351562 158.253906 C 46.191406 158.335938 41.304688 164.703125 40.578125 165.714844 L 28.035156 180.128906 C 27.996094 180.183594 27.949219 180.238281 27.914062 180.289062 C 23.253906 186.699219 25.273438 194.496094 26.726562 198.296875 C 24.246094 200.367188 22.722656 204.667969 22.082031 206.871094 C 21.714844 208.117188 22.429688 209.417969 23.671875 209.785156 C 24.917969 210.148438 26.226562 209.4375 26.585938 208.191406 C 27.417969 205.363281 28.957031 202.335938 29.8125 201.816406 C 30.601562 201.816406 31.34375 201.421875 31.777344 200.757812 C 32.246094 200.039062 32.289062 199.125 31.882812 198.367188 C 31.835938 198.273438 27.1875 189.410156 31.65625 183.132812 L 44.199219 168.707031 C 44.257812 168.644531 44.3125 168.574219 44.359375 168.503906 C 44.398438 168.449219 48.261719 162.996094 53.425781 162.949219 C 56.835938 162.917969 60.242188 165.242188 63.597656 169.847656 C 64.355469 171.125 72.296875 184.664062 74.371094 189.496094 C 75.691406 192.554688 77.714844 198.828125 76.476562 206.457031 C 76.441406 206.640625 76.4375 206.824219 76.453125 207.011719 C 76.589844 208.875 78.121094 212.300781 82.96875 213.285156 C 83.128906 213.316406 83.289062 213.335938 83.441406 213.335938 C 84.53125 213.335938 85.515625 212.566406 85.742188 211.453125 C 86 210.179688 85.175781 208.941406 83.90625 208.6875 " fill-opacity="1" fill-rule="nonzero"/><path fill="#5271ff" d="M 89.722656 204.1875 C 89.597656 203.71875 89.402344 201.648438 89.238281 199.824219 C 88.636719 193.339844 88.035156 187.730469 86.660156 184.792969 C 82.820312 176.597656 77.171875 167.464844 73.433594 161.421875 L 72.675781 160.1875 C 67.433594 151.695312 61.058594 149.351562 56.628906 148.882812 C 49.71875 148.152344 43.207031 151.390625 39.820312 154.929688 C 38.757812 156.039062 37.28125 157.382812 35.566406 158.9375 C 29.6875 164.292969 21.628906 171.628906 17.660156 180.730469 C 15.683594 185.261719 16.574219 198.777344 16.773438 201.441406 C 16.867188 202.738281 17.988281 203.703125 19.292969 203.609375 C 20.582031 203.511719 21.550781 202.382812 21.457031 201.09375 C 21.03125 195.375 20.796875 185.296875 21.964844 182.613281 C 25.53125 174.429688 33.160156 167.480469 38.734375 162.410156 C 40.507812 160.796875 42.042969 159.402344 43.214844 158.175781 C 45.722656 155.558594 50.828125 152.988281 56.132812 153.554688 C 61.050781 154.078125 65.273438 157.140625 68.683594 162.660156 L 69.441406 163.890625 C 73.121094 169.839844 78.683594 178.839844 82.410156 186.789062 C 83.542969 189.21875 84.179688 196.128906 84.5625 200.253906 C 84.855469 203.464844 84.996094 204.90625 85.273438 205.703125 C 85.617188 206.671875 86.542969 207.296875 87.515625 207.296875 C 87.773438 207.296875 88.027344 207.253906 88.28125 207.160156 C 89.507812 206.730469 90.15625 205.414062 89.722656 204.1875 " fill-opacity="1" fill-rule="nonzero"/><g fill="#000000" fill-opacity="1"><g transform="translate(118.285581, 158.474629)"><g><path d="M 2.453125 0 L 9.085938 0 L 9.085938 -11.769531 L 13.558594 -5.503906 L 17.902344 -5.503906 L 22.34375 -11.738281 L 22.34375 0 L 28.976562 0 L 28.976562 -23.207031 L 23.539062 -23.207031 L 15.714844 -12.167969 L 7.921875 -23.207031 L 2.453125 -23.207031 Z M 2.453125 0 "/></g></g></g><g fill="#000000" fill-opacity="1"><g transform="translate(149.705107, 158.474629)"><g><path d="M 2.453125 0 L 18.730469 0 L 18.730469 -5.46875 L 9.085938 -5.46875 L 9.085938 -9.050781 L 17.472656 -9.050781 L 17.472656 -14.421875 L 9.085938 -14.421875 L 9.085938 -17.804688 L 18.367188 -17.804688 L 18.367188 -23.207031 L 2.453125 -23.207031 Z M 2.453125 0 "/></g></g></g><g fill="#000000" fill-opacity="1"><g transform="translate(169.922318, 158.474629)"><g><path d="M 2.453125 0 L 12.300781 0 C 19.792969 0 24.765625 -4.609375 24.765625 -11.605469 C 24.765625 -18.566406 19.792969 -23.207031 12.300781 -23.207031 L 2.453125 -23.207031 Z M 9.152344 -6 L 9.152344 -17.207031 L 12.101562 -17.207031 C 15.648438 -17.207031 17.9375 -15.019531 17.9375 -11.605469 C 17.9375 -8.1875 15.648438 -6 12.101562 -6 Z M 9.152344 -6 "/></g></g></g><g fill="#000000" fill-opacity="1"><g transform="translate(195.806973, 158.474629)"><g><path d="M 2.453125 0 L 9.152344 0 L 9.152344 -23.207031 L 2.453125 -23.207031 Z M 2.453125 0 "/></g></g></g><g fill="#000000" fill-opacity="1"><g transform="translate(207.406998, 158.474629)"><g><path d="M 13.292969 0.496094 C 19.691406 0.496094 24.535156 -3.382812 25.527344 -9.28125 L 18.730469 -9.28125 C 17.902344 -7.09375 15.945312 -5.703125 13.425781 -5.703125 C 10.179688 -5.703125 7.921875 -8.121094 7.921875 -11.605469 C 7.921875 -15.117188 10.210938 -17.503906 13.492188 -17.503906 C 15.914062 -17.503906 17.9375 -16.144531 18.632812 -14.058594 L 25.394531 -14.058594 C 24.203125 -19.925781 19.429688 -23.703125 13.226562 -23.703125 C 6.066406 -23.703125 1.128906 -18.765625 1.128906 -11.605469 C 1.128906 -4.441406 6.066406 0.496094 13.292969 0.496094 Z M 13.292969 0.496094 "/></g></g></g><g fill="#000000" fill-opacity="1"><g transform="translate(233.987657, 158.474629)"><g><path d="M 0.164062 0 L 7.261719 0 L 8.519531 -3.28125 L 16.445312 -3.28125 L 17.703125 0 L 24.832031 0 L 15.8125 -23.207031 L 9.183594 -23.207031 Z M 9.914062 -8.1875 L 12.5 -15.382812 L 15.085938 -8.1875 Z M 9.914062 -8.1875 "/></g></g></g><g fill="#000000" fill-opacity="1"><g transform="translate(258.977451, 158.474629)"><g><path d="M 2.453125 0 L 18.632812 0 L 18.632812 -6.199219 L 9.152344 -6.199219 L 9.152344 -23.207031 L 2.453125 -23.207031 Z M 2.453125 0 "/></g></g></g><g fill="#000000" fill-opacity="1"><g transform="translate(118.285581, 197.308791)"><g><path d="M 2.453125 0 L 12.300781 0 C 19.792969 0 24.765625 -4.609375 24.765625 -11.605469 C 24.765625 -18.566406 19.792969 -23.207031 12.300781 -23.207031 L 2.453125 -23.207031 Z M 9.152344 -6 L 9.152344 -17.207031 L 12.101562 -17.207031 C 15.648438 -17.207031 17.9375 -15.019531 17.9375 -11.605469 C 17.9375 -8.1875 15.648438 -6 12.101562 -6 Z M 9.152344 -6 "/></g></g></g><g fill="#000000" fill-opacity="1"><g transform="translate(144.170235, 197.308791)"><g><path d="M 2.453125 0 L 9.152344 0 L 9.152344 -23.207031 L 2.453125 -23.207031 Z M 2.453125 0 "/></g></g></g><g fill="#000000" fill-opacity="1"><g transform="translate(155.770261, 197.308791)"><g><path d="M 0.164062 0 L 7.261719 0 L 8.519531 -3.28125 L 16.445312 -3.28125 L 17.703125 0 L 24.832031 0 L 15.8125 -23.207031 L 9.183594 -23.207031 Z M 9.914062 -8.1875 L 12.5 -15.382812 L 15.085938 -8.1875 Z M 9.914062 -8.1875 "/></g></g></g><g fill="#000000" fill-opacity="1"><g transform="translate(180.760054, 197.308791)"><g><path d="M 13.527344 0.496094 C 21.515625 0.496094 26.523438 -5.304688 25.792969 -13.460938 L 12.367188 -13.460938 L 12.367188 -8.753906 L 18.765625 -8.753906 C 18.101562 -6.796875 16.246094 -5.46875 13.59375 -5.46875 C 9.878906 -5.46875 7.726562 -8.089844 7.726562 -11.605469 C 7.726562 -15.25 10.078125 -17.738281 13.527344 -17.738281 C 15.582031 -17.738281 17.339844 -16.84375 18.234375 -15.382812 L 25.363281 -15.382812 C 24.003906 -20.457031 19.296875 -23.703125 13.425781 -23.703125 C 6.132812 -23.703125 1.128906 -18.730469 1.128906 -11.605469 C 1.128906 -4.441406 6.167969 0.496094 13.527344 0.496094 Z M 13.527344 0.496094 "/></g></g></g><g fill="#000000" fill-opacity="1"><g transform="translate(207.67214, 197.308791)"><g><path d="M 2.453125 0 L 9.085938 0 L 9.085938 -11.835938 L 17.902344 0 L 23.339844 0 L 23.339844 -23.207031 L 16.742188 -23.207031 L 16.742188 -11.4375 L 7.921875 -23.207031 L 2.453125 -23.207031 Z M 2.453125 0 "/></g></g></g><g fill="#000000" fill-opacity="1"><g transform="translate(233.490509, 197.308791)"><g><path d="M 13.757812 0.496094 C 21.152344 0.496094 26.390625 -4.507812 26.390625 -11.605469 C 26.390625 -18.699219 21.152344 -23.703125 13.757812 -23.703125 C 6.367188 -23.703125 1.128906 -18.699219 1.128906 -11.605469 C 1.128906 -4.507812 6.367188 0.496094 13.757812 0.496094 Z M 7.921875 -11.605469 C 7.921875 -15.085938 10.34375 -17.503906 13.757812 -17.503906 C 17.207031 -17.503906 19.59375 -15.085938 19.59375 -11.605469 C 19.59375 -8.121094 17.207031 -5.703125 13.757812 -5.703125 C 10.34375 -5.703125 7.921875 -8.121094 7.921875 -11.605469 Z M 7.921875 -11.605469 "/></g></g></g><g fill="#000000" fill-opacity="1"><g transform="translate(261.032296, 197.308791)"><g><path d="M 10.773438 0.496094 C 16.542969 0.496094 19.957031 -2.222656 19.957031 -6.796875 C 19.957031 -10.640625 17.472656 -12.898438 11.835938 -14.15625 C 8.851562 -14.820312 7.757812 -15.550781 7.757812 -16.742188 C 7.757812 -17.871094 8.753906 -18.566406 10.3125 -18.566406 C 12.167969 -18.566406 13.226562 -17.605469 13.226562 -15.847656 L 19.527344 -15.847656 C 19.527344 -20.621094 15.878906 -23.703125 10.179688 -23.703125 C 4.707031 -23.703125 1.324219 -20.988281 1.324219 -16.609375 C 1.324219 -12.699219 3.878906 -10.277344 9.117188 -9.28125 C 11.933594 -8.71875 13.292969 -7.859375 13.292969 -6.53125 C 13.292969 -5.371094 12.300781 -4.707031 10.675781 -4.707031 C 8.753906 -4.707031 7.625 -5.734375 7.625 -7.527344 L 1.160156 -7.527344 C 1.160156 -2.519531 4.742188 0.496094 10.773438 0.496094 Z M 10.773438 0.496094 "/></g></g></g><g fill="#000000" fill-opacity="1"><g transform="translate(282.210636, 197.308791)"><g><path d="M 7.988281 0 L 14.652344 0 L 14.652344 -17.007812 L 21.714844 -17.007812 L 21.714844 -23.207031 L 0.929688 -23.207031 L 0.929688 -17.007812 L 7.988281 -17.007812 Z M 7.988281 0 "/></g></g></g><g fill="#000000" fill-opacity="1"><g transform="translate(304.847272, 197.308791)"><g><path d="M 2.453125 0 L 9.152344 0 L 9.152344 -23.207031 L 2.453125 -23.207031 Z M 2.453125 0 "/></g></g></g><g fill="#000000" fill-opacity="1"><g transform="translate(316.447298, 197.308791)"><g><path d="M 13.292969 0.496094 C 19.691406 0.496094 24.535156 -3.382812 25.527344 -9.28125 L 18.730469 -9.28125 C 17.902344 -7.09375 15.945312 -5.703125 13.425781 -5.703125 C 10.179688 -5.703125 7.921875 -8.121094 7.921875 -11.605469 C 7.921875 -15.117188 10.210938 -17.503906 13.492188 -17.503906 C 15.914062 -17.503906 17.9375 -16.144531 18.632812 -14.058594 L 25.394531 -14.058594 C 24.203125 -19.925781 19.429688 -23.703125 13.226562 -23.703125 C 6.066406 -23.703125 1.128906 -18.765625 1.128906 -11.605469 C 1.128906 -4.441406 6.066406 0.496094 13.292969 0.496094 Z M 13.292969 0.496094 "/></g></g></g><g fill="#000000" fill-opacity="1"><g transform="translate(118.285581, 236.142939)"><g><path d="M 10.773438 0.496094 C 16.542969 0.496094 19.957031 -2.222656 19.957031 -6.796875 C 19.957031 -10.640625 17.472656 -12.898438 11.835938 -14.15625 C 8.851562 -14.820312 7.757812 -15.550781 7.757812 -16.742188 C 7.757812 -17.871094 8.753906 -18.566406 10.3125 -18.566406 C 12.167969 -18.566406 13.226562 -17.605469 13.226562 -15.847656 L 19.527344 -15.847656 C 19.527344 -20.621094 15.878906 -23.703125 10.179688 -23.703125 C 4.707031 -23.703125 1.324219 -20.988281 1.324219 -16.609375 C 1.324219 -12.699219 3.878906 -10.277344 9.117188 -9.28125 C 11.933594 -8.71875 13.292969 -7.859375 13.292969 -6.53125 C 13.292969 -5.371094 12.300781 -4.707031 10.675781 -4.707031 C 8.753906 -4.707031 7.625 -5.734375 7.625 -7.527344 L 1.160156 -7.527344 C 1.160156 -2.519531 4.742188 0.496094 10.773438 0.496094 Z M 10.773438 0.496094 "/></g></g></g><g fill="#000000" fill-opacity="1"><g transform="translate(139.463921, 236.142939)"><g><path d="M 8.621094 0 L 15.285156 0 L 15.285156 -8.089844 L 23.738281 -23.207031 L 16.144531 -23.207031 L 11.933594 -14.886719 L 10.144531 -18.398438 L 7.691406 -23.207031 L 0.164062 -23.207031 L 8.621094 -8.054688 Z M 8.621094 0 "/></g></g></g><g fill="#000000" fill-opacity="1"><g transform="translate(163.359996, 236.142939)"><g><path d="M 10.773438 0.496094 C 16.542969 0.496094 19.957031 -2.222656 19.957031 -6.796875 C 19.957031 -10.640625 17.472656 -12.898438 11.835938 -14.15625 C 8.851562 -14.820312 7.757812 -15.550781 7.757812 -16.742188 C 7.757812 -17.871094 8.753906 -18.566406 10.3125 -18.566406 C 12.167969 -18.566406 13.226562 -17.605469 13.226562 -15.847656 L 19.527344 -15.847656 C 19.527344 -20.621094 15.878906 -23.703125 10.179688 -23.703125 C 4.707031 -23.703125 1.324219 -20.988281 1.324219 -16.609375 C 1.324219 -12.699219 3.878906 -10.277344 9.117188 -9.28125 C 11.933594 -8.71875 13.292969 -7.859375 13.292969 -6.53125 C 13.292969 -5.371094 12.300781 -4.707031 10.675781 -4.707031 C 8.753906 -4.707031 7.625 -5.734375 7.625 -7.527344 L 1.160156 -7.527344 C 1.160156 -2.519531 4.742188 0.496094 10.773438 0.496094 Z M 10.773438 0.496094 "/></g></g></g><g fill="#000000" fill-opacity="1"><g transform="translate(184.538336, 236.142939)"><g><path d="M 7.988281 0 L 14.652344 0 L 14.652344 -17.007812 L 21.714844 -17.007812 L 21.714844 -23.207031 L 0.929688 -23.207031 L 0.929688 -17.007812 L 7.988281 -17.007812 Z M 7.988281 0 "/></g></g></g><g fill="#000000" fill-opacity="1"><g transform="translate(207.174972, 236.142939)"><g><path d="M 2.453125 0 L 18.730469 0 L 18.730469 -5.46875 L 9.085938 -5.46875 L 9.085938 -9.050781 L 17.472656 -9.050781 L 17.472656 -14.421875 L 9.085938 -14.421875 L 9.085938 -17.804688 L 18.367188 -17.804688 L 18.367188 -23.207031 L 2.453125 -23.207031 Z M 2.453125 0 "/></g></g></g><g fill="#000000" fill-opacity="1"><g transform="translate(227.392184, 236.142939)"><g><path d="M 2.453125 0 L 9.085938 0 L 9.085938 -11.769531 L 13.558594 -5.503906 L 17.902344 -5.503906 L 22.34375 -11.738281 L 22.34375 0 L 28.976562 0 L 28.976562 -23.207031 L 23.539062 -23.207031 L 15.714844 -12.167969 L 7.921875 -23.207031 L 2.453125 -23.207031 Z M 2.453125 0 "/></g></g></g></svg>