<svg xmlns="http://www.w3.org/2000/svg" xmlns:xlink="http://www.w3.org/1999/xlink" width="514" zoomAndPan="magnify" viewBox="0 0 385.5 136.499996" height="182" preserveAspectRatio="xMidYMid meet" version="1.0"><defs><g/><clipPath id="be47505adc"><path d="M 0.453125 1.375 L 106.566406 1.375 L 106.566406 134.386719 L 0.453125 134.386719 Z M 0.453125 1.375 " clip-rule="nonzero"/></clipPath></defs><g clip-path="url(#be47505adc)"><path fill="#ffffff" d="M 106.203125 131.164062 C 106.203125 133.070312 104.664062 134.609375 102.753906 134.609375 L 4.019531 134.609375 C 2.117188 134.609375 0.570312 133.070312 0.570312 131.164062 L 0.570312 4.832031 C 0.570312 2.925781 2.117188 1.382812 4.019531 1.382812 L 102.753906 1.382812 C 104.664062 1.382812 106.203125 2.925781 106.203125 4.832031 L 106.203125 131.164062 " fill-opacity="1" fill-rule="nonzero"/></g><path fill="#ffffff" d="M 99.882812 123.597656 C 99.882812 125.277344 98.527344 126.636719 96.84375 126.636719 L 9.929688 126.636719 C 8.25 126.636719 6.890625 125.277344 6.890625 123.597656 L 6.890625 12.394531 C 6.890625 10.714844 8.25 9.355469 9.929688 9.355469 L 96.84375 9.355469 C 98.527344 9.355469 99.882812 10.714844 99.882812 12.394531 L 99.882812 123.597656 " fill-opacity="1" fill-rule="nonzero"/><path fill="#5271ff" d="M 13.691406 44.402344 C 12.398438 44.402344 11.351562 43.351562 11.351562 42.058594 L 11.351562 20.519531 C 11.351562 17.800781 13.558594 15.585938 16.28125 15.585938 L 32.914062 15.585938 C 34.207031 15.585938 35.25 16.636719 35.25 17.929688 C 35.25 19.222656 34.207031 20.265625 32.914062 20.265625 L 16.28125 20.265625 C 16.140625 20.265625 16.035156 20.378906 16.035156 20.519531 L 16.035156 42.058594 C 16.035156 43.351562 14.980469 44.402344 13.691406 44.402344 " fill-opacity="1" fill-rule="nonzero"/><path fill="#5271ff" d="M 33.695312 120.40625 L 16.28125 120.40625 C 13.558594 120.40625 11.351562 118.191406 11.351562 115.472656 L 11.351562 95.886719 C 11.351562 94.59375 12.398438 93.542969 13.691406 93.542969 C 14.980469 93.542969 16.035156 94.59375 16.035156 95.886719 L 16.035156 115.472656 C 16.035156 115.613281 16.140625 115.726562 16.28125 115.726562 L 33.695312 115.726562 C 34.988281 115.726562 36.03125 116.769531 36.03125 118.0625 C 36.03125 119.355469 34.988281 120.40625 33.695312 120.40625 " fill-opacity="1" fill-rule="nonzero"/><path fill="#5271ff" d="M 90.496094 120.40625 L 74.644531 120.40625 C 73.355469 120.40625 72.304688 119.355469 72.304688 118.0625 C 72.304688 116.769531 73.355469 115.726562 74.644531 115.726562 L 90.496094 115.726562 C 90.636719 115.726562 90.746094 115.613281 90.746094 115.472656 L 90.746094 98.609375 C 90.746094 97.324219 91.796875 96.273438 93.089844 96.273438 C 94.382812 96.273438 95.429688 97.324219 95.429688 98.609375 L 95.429688 115.472656 C 95.429688 118.191406 93.214844 120.40625 90.496094 120.40625 " fill-opacity="1" fill-rule="nonzero"/><path fill="#5271ff" d="M 93.089844 45.570312 C 91.796875 45.570312 90.746094 44.519531 90.746094 43.234375 L 90.746094 20.519531 C 90.746094 20.378906 90.636719 20.265625 90.496094 20.265625 L 75.03125 20.265625 C 73.738281 20.265625 72.691406 19.222656 72.691406 17.929688 C 72.691406 16.636719 73.738281 15.585938 75.03125 15.585938 L 90.496094 15.585938 C 93.214844 15.585938 95.429688 17.800781 95.429688 20.519531 L 95.429688 43.234375 C 95.429688 44.519531 94.382812 45.570312 93.089844 45.570312 " fill-opacity="1" fill-rule="nonzero"/><path fill="#5271ff" d="M 48.816406 88.234375 L 49.796875 88.21875 C 58.324219 88.035156 63.273438 86.34375 65.394531 82.882812 C 67.789062 78.976562 65.597656 74.46875 63.996094 71.1875 L 63.945312 71.074219 C 60.148438 63.25 56.542969 59.683594 52.570312 59.859375 C 49.023438 60.019531 46.121094 63.183594 43.707031 69.542969 C 42.9375 71.554688 42.125 74.492188 43.863281 76.710938 C 45.804688 79.164062 49.644531 79.207031 55.636719 78.449219 C 56.917969 78.285156 57.824219 77.113281 57.664062 75.832031 C 57.5 74.546875 56.332031 73.640625 55.042969 73.808594 C 49.039062 74.570312 47.789062 74.058594 47.546875 73.832031 C 47.546875 73.824219 47.320312 73.21875 48.082031 71.203125 C 49.921875 66.355469 51.714844 64.582031 52.777344 64.535156 C 53.265625 64.519531 55.71875 64.839844 59.734375 73.121094 L 59.792969 73.230469 C 60.976562 75.675781 62.453125 78.71875 61.402344 80.445312 C 60.742188 81.519531 58.347656 83.359375 49.699219 83.535156 L 48.722656 83.558594 C 35.257812 83.828125 30.222656 83.933594 27.855469 97.261719 C 27.625 98.527344 28.476562 99.746094 29.746094 99.96875 C 29.886719 99.996094 30.023438 100.007812 30.15625 100.007812 C 31.273438 100.007812 32.261719 99.210938 32.460938 98.078125 C 33.5 92.21875 34.6875 90.507812 36.253906 89.652344 C 38.453125 88.449219 42.570312 88.363281 48.816406 88.234375 " fill-opacity="1" fill-rule="nonzero"/><path fill="#5271ff" d="M 79.179688 94.480469 C 76.105469 94.199219 74.238281 91.097656 73.472656 89.523438 C 76.117188 83.992188 74.078125 75.988281 72.992188 73.195312 C 71.253906 68.75 66.71875 60.875 64.121094 57.320312 C 60.808594 52.792969 57.253906 50.414062 53.550781 50.253906 C 50.179688 50.113281 46.894531 51.820312 43.824219 55.347656 C 41.367188 58.171875 35.375 66.84375 34.851562 67.609375 C 31.410156 72.207031 34.292969 77.65625 36.308594 79.898438 C 37.171875 80.863281 38.652344 80.9375 39.609375 80.074219 C 40.574219 79.21875 40.65625 77.738281 39.792969 76.773438 C 39.757812 76.738281 36.554688 73.109375 38.613281 70.386719 C 38.636719 70.359375 38.660156 70.328125 38.675781 70.304688 C 38.742188 70.210938 45.007812 61.117188 47.355469 58.421875 C 49.4375 56.027344 51.441406 54.855469 53.351562 54.929688 C 55.554688 55.023438 57.910156 56.761719 60.34375 60.089844 C 62.765625 63.394531 67.066406 70.882812 68.632812 74.898438 C 69.972656 78.332031 70.988281 84.90625 68.921875 88.105469 C 68.082031 89.410156 66.789062 90.0625 64.875 90.167969 C 60.027344 90.285156 44.234375 90.710938 41.800781 91.4375 C 38.476562 92.429688 36.203125 96.503906 35.714844 102.324219 C 35.609375 103.609375 36.566406 104.746094 37.855469 104.851562 C 37.917969 104.855469 37.988281 104.855469 38.054688 104.855469 C 39.257812 104.855469 40.28125 103.933594 40.378906 102.710938 C 40.757812 98.253906 42.273438 96.179688 43.128906 95.925781 C 44.585938 95.539062 55.402344 95.074219 65.015625 94.84375 L 65.085938 94.84375 C 67.28125 94.734375 68.957031 94.109375 70.21875 93.289062 C 71.746094 95.71875 74.472656 98.746094 78.746094 99.144531 C 78.816406 99.152344 78.890625 99.152344 78.960938 99.152344 C 80.152344 99.152344 81.175781 98.246094 81.289062 97.03125 C 81.410156 95.746094 80.464844 94.605469 79.179688 94.480469 " fill-opacity="1" fill-rule="nonzero"/><path fill="#5271ff" d="M 67.90625 104.992188 C 61.59375 100.355469 52.40625 101.378906 46.984375 107.3125 C 46.109375 108.265625 46.171875 109.746094 47.128906 110.613281 C 47.582031 111.023438 48.148438 111.230469 48.710938 111.230469 C 49.34375 111.230469 49.972656 110.972656 50.4375 110.46875 C 54.203125 106.34375 60.800781 105.578125 65.136719 108.761719 C 66.175781 109.527344 67.640625 109.304688 68.402344 108.265625 C 69.171875 107.21875 68.949219 105.753906 67.90625 104.992188 " fill-opacity="1" fill-rule="nonzero"/><path fill="#5271ff" d="M 58.535156 95.972656 C 49.914062 96.265625 43.257812 99.773438 39.785156 105.84375 C 39.144531 106.964844 39.535156 108.394531 40.65625 109.035156 C 41.019531 109.246094 41.421875 109.34375 41.8125 109.34375 C 42.628906 109.34375 43.417969 108.921875 43.851562 108.164062 C 47.402344 101.949219 54.675781 100.785156 58.691406 100.648438 C 66.148438 100.390625 72.035156 102.976562 72.96875 104.378906 C 73.6875 105.457031 75.136719 105.75 76.210938 105.027344 C 77.292969 104.308594 77.582031 102.859375 76.863281 101.785156 C 74.515625 98.253906 66.464844 95.703125 58.535156 95.972656 " fill-opacity="1" fill-rule="nonzero"/><path fill="#5271ff" d="M 84.054688 89.109375 C 82.035156 88.699219 81.488281 87.691406 81.335938 87.21875 C 82.621094 78.636719 80.34375 71.597656 78.855469 68.136719 C 76.578125 62.84375 68.15625 48.542969 67.800781 47.9375 C 67.765625 47.875 67.722656 47.816406 67.679688 47.75 C 63.40625 41.851562 58.722656 38.863281 53.757812 38.863281 L 53.609375 38.863281 C 46.476562 38.945312 41.609375 45.289062 40.886719 46.292969 L 28.390625 60.660156 C 28.347656 60.710938 28.300781 60.765625 28.265625 60.816406 C 23.625 67.203125 25.632812 74.96875 27.085938 78.757812 C 24.613281 80.820312 23.09375 85.105469 22.457031 87.300781 C 22.089844 88.542969 22.800781 89.839844 24.042969 90.203125 C 25.28125 90.566406 26.585938 89.855469 26.945312 88.617188 C 27.773438 85.796875 29.304688 82.785156 30.15625 82.265625 C 30.945312 82.265625 31.683594 81.875 32.113281 81.210938 C 32.582031 80.492188 32.625 79.582031 32.21875 78.828125 C 32.171875 78.734375 27.542969 69.90625 31.996094 63.648438 L 44.492188 49.277344 C 44.550781 49.214844 44.605469 49.144531 44.652344 49.074219 C 44.691406 49.019531 48.539062 43.585938 53.6875 43.539062 C 57.082031 43.507812 60.480469 45.824219 63.820312 50.414062 C 64.574219 51.6875 72.488281 65.175781 74.554688 69.988281 C 75.871094 73.035156 77.886719 79.289062 76.652344 86.890625 C 76.617188 87.074219 76.613281 87.253906 76.628906 87.441406 C 76.765625 89.300781 78.292969 92.710938 83.121094 93.695312 C 83.28125 93.722656 83.4375 93.742188 83.589844 93.742188 C 84.679688 93.742188 85.660156 92.976562 85.882812 91.867188 C 86.140625 90.597656 85.320312 89.363281 84.054688 89.109375 " fill-opacity="1" fill-rule="nonzero"/><path fill="#5271ff" d="M 89.847656 84.628906 C 89.726562 84.160156 89.53125 82.097656 89.367188 80.28125 C 88.765625 73.820312 88.167969 68.230469 86.800781 65.304688 C 82.972656 57.140625 77.347656 48.039062 73.621094 42.015625 L 72.863281 40.789062 C 67.640625 32.328125 61.289062 29.992188 56.878906 29.527344 C 49.992188 28.796875 43.503906 32.023438 40.128906 35.546875 C 39.070312 36.652344 37.601562 37.992188 35.890625 39.542969 C 30.035156 44.878906 22.003906 52.1875 18.050781 61.257812 C 16.082031 65.769531 16.96875 79.234375 17.167969 81.890625 C 17.261719 83.183594 18.378906 84.148438 19.675781 84.054688 C 20.964844 83.953125 21.925781 82.832031 21.832031 81.542969 C 21.410156 75.84375 21.175781 65.804688 22.335938 63.132812 C 25.890625 54.976562 33.496094 48.054688 39.046875 43.003906 C 40.816406 41.394531 42.34375 40.007812 43.511719 38.785156 C 46.007812 36.175781 51.097656 33.617188 56.382812 34.179688 C 61.285156 34.703125 65.488281 37.75 68.886719 43.25 L 69.644531 44.476562 C 73.308594 50.40625 78.851562 59.371094 82.5625 67.292969 C 83.691406 69.710938 84.324219 76.597656 84.707031 80.710938 C 85 83.90625 85.140625 85.34375 85.417969 86.136719 C 85.757812 87.101562 86.679688 87.726562 87.652344 87.726562 C 87.910156 87.726562 88.160156 87.683594 88.414062 87.589844 C 89.636719 87.160156 90.28125 85.851562 89.847656 84.628906 " fill-opacity="1" fill-rule="nonzero"/><g fill="#000000" fill-opacity="1"><g transform="translate(118.308262, 39.081484)"><g><path d="M 2.445312 0 L 9.050781 0 L 9.050781 -11.726562 L 13.511719 -5.484375 L 17.835938 -5.484375 L 22.265625 -11.695312 L 22.265625 0 L 28.871094 0 L 28.871094 -23.121094 L 23.453125 -23.121094 L 15.65625 -12.121094 L 7.894531 -23.121094 L 2.445312 -23.121094 Z M 2.445312 0 "/></g></g></g><g fill="#000000" fill-opacity="1"><g transform="translate(149.613118, 39.081484)"><g><path d="M 2.445312 0 L 18.664062 0 L 18.664062 -5.449219 L 9.050781 -5.449219 L 9.050781 -9.019531 L 17.410156 -9.019531 L 17.410156 -14.371094 L 9.050781 -14.371094 L 9.050781 -17.738281 L 18.300781 -17.738281 L 18.300781 -23.121094 L 2.445312 -23.121094 Z M 2.445312 0 "/></g></g></g><g fill="#000000" fill-opacity="1"><g transform="translate(169.756544, 39.081484)"><g><path d="M 2.445312 0 L 12.253906 0 C 19.71875 0 24.675781 -4.589844 24.675781 -11.5625 C 24.675781 -18.5 19.71875 -23.121094 12.253906 -23.121094 L 2.445312 -23.121094 Z M 9.117188 -5.980469 L 9.117188 -17.144531 L 12.058594 -17.144531 C 15.589844 -17.144531 17.871094 -14.964844 17.871094 -11.5625 C 17.871094 -8.160156 15.589844 -5.980469 12.058594 -5.980469 Z M 9.117188 -5.980469 "/></g></g></g><g fill="#000000" fill-opacity="1"><g transform="translate(195.546728, 39.081484)"><g><path d="M 2.445312 0 L 9.117188 0 L 9.117188 -23.121094 L 2.445312 -23.121094 Z M 2.445312 0 "/></g></g></g><g fill="#000000" fill-opacity="1"><g transform="translate(207.104418, 39.081484)"><g><path d="M 13.246094 0.496094 C 19.621094 0.496094 24.445312 -3.371094 25.433594 -9.25 L 18.664062 -9.25 C 17.835938 -7.070312 15.890625 -5.679688 13.378906 -5.679688 C 10.140625 -5.679688 7.894531 -8.09375 7.894531 -11.5625 C 7.894531 -15.0625 10.175781 -17.441406 13.445312 -17.441406 C 15.855469 -17.441406 17.871094 -16.085938 18.5625 -14.007812 L 25.304688 -14.007812 C 24.113281 -19.851562 19.355469 -23.617188 13.179688 -23.617188 C 6.046875 -23.617188 1.125 -18.695312 1.125 -11.5625 C 1.125 -4.425781 6.046875 0.496094 13.246094 0.496094 Z M 13.246094 0.496094 "/></g></g></g><g fill="#000000" fill-opacity="1"><g transform="translate(233.588067, 39.081484)"><g><path d="M 0.164062 0 L 7.234375 0 L 8.488281 -3.269531 L 16.382812 -3.269531 L 17.640625 0 L 24.742188 0 L 15.757812 -23.121094 L 9.148438 -23.121094 Z M 9.875 -8.160156 L 12.453125 -15.328125 L 15.03125 -8.160156 Z M 9.875 -8.160156 "/></g></g></g><g fill="#000000" fill-opacity="1"><g transform="translate(258.486657, 39.081484)"><g><path d="M 2.445312 0 L 18.5625 0 L 18.5625 -6.175781 L 9.117188 -6.175781 L 9.117188 -23.121094 L 2.445312 -23.121094 Z M 2.445312 0 "/></g></g></g><g fill="#000000" fill-opacity="1"><g transform="translate(118.308262, 77.773919)"><g><path d="M 2.445312 0 L 18.5625 0 L 18.5625 -6.175781 L 9.117188 -6.175781 L 9.117188 -23.121094 L 2.445312 -23.121094 Z M 2.445312 0 "/></g></g></g><g fill="#000000" fill-opacity="1"><g transform="translate(137.692179, 77.773919)"><g><path d="M 0.164062 0 L 7.234375 0 L 8.488281 -3.269531 L 16.382812 -3.269531 L 17.640625 0 L 24.742188 0 L 15.757812 -23.121094 L 9.148438 -23.121094 Z M 9.875 -8.160156 L 12.453125 -15.328125 L 15.03125 -8.160156 Z M 9.875 -8.160156 "/></g></g></g><g fill="#000000" fill-opacity="1"><g transform="translate(162.590769, 77.773919)"><g><path d="M 2.445312 0 L 14.304688 0 C 18.992188 0 22.265625 -2.644531 22.265625 -6.441406 C 22.265625 -8.886719 20.941406 -10.867188 18.761719 -11.824219 C 20.546875 -12.851562 21.570312 -14.699219 21.570312 -16.914062 C 21.570312 -20.710938 18.53125 -23.121094 13.707031 -23.121094 L 2.445312 -23.121094 Z M 8.984375 -4.953125 L 8.984375 -9.28125 L 13.015625 -9.28125 C 14.601562 -9.28125 15.492188 -8.488281 15.492188 -7.136719 C 15.492188 -5.746094 14.601562 -4.953125 13.015625 -4.953125 Z M 8.984375 -14.039062 L 8.984375 -18.199219 L 12.453125 -18.199219 C 14.007812 -18.199219 14.863281 -17.441406 14.863281 -16.121094 C 14.863281 -14.765625 14.007812 -14.039062 12.453125 -14.039062 Z M 8.984375 -14.039062 "/></g></g></g><g fill="#000000" fill-opacity="1"><g transform="translate(185.805222, 77.773919)"><g><path d="M 13.707031 0.496094 C 21.074219 0.496094 26.292969 -4.492188 26.292969 -11.5625 C 26.292969 -18.628906 21.074219 -23.617188 13.707031 -23.617188 C 6.34375 -23.617188 1.125 -18.628906 1.125 -11.5625 C 1.125 -4.492188 6.34375 0.496094 13.707031 0.496094 Z M 7.894531 -11.5625 C 7.894531 -15.03125 10.304688 -17.441406 13.707031 -17.441406 C 17.144531 -17.441406 19.523438 -15.03125 19.523438 -11.5625 C 19.523438 -8.09375 17.144531 -5.679688 13.707031 -5.679688 C 10.304688 -5.679688 7.894531 -8.09375 7.894531 -11.5625 Z M 7.894531 -11.5625 "/></g></g></g><g fill="#000000" fill-opacity="1"><g transform="translate(213.246492, 77.773919)"><g><path d="M 2.445312 0 L 9.117188 0 L 9.117188 -6.574219 L 11.628906 -6.574219 L 14.929688 0 L 22.496094 0 L 18.234375 -7.796875 C 20.679688 -9.148438 22.066406 -11.59375 22.066406 -14.832031 C 22.066406 -19.953125 18.597656 -23.121094 12.980469 -23.121094 L 2.445312 -23.121094 Z M 8.984375 -11.890625 L 8.984375 -17.671875 L 12.089844 -17.671875 C 14.203125 -17.671875 15.359375 -16.648438 15.359375 -14.796875 C 15.359375 -12.949219 14.203125 -11.890625 12.089844 -11.890625 Z M 8.984375 -11.890625 "/></g></g></g><g fill="#000000" fill-opacity="1"><g transform="translate(237.022324, 77.773919)"><g><path d="M 0.164062 0 L 7.234375 0 L 8.488281 -3.269531 L 16.382812 -3.269531 L 17.640625 0 L 24.742188 0 L 15.757812 -23.121094 L 9.148438 -23.121094 Z M 9.875 -8.160156 L 12.453125 -15.328125 L 15.03125 -8.160156 Z M 9.875 -8.160156 "/></g></g></g><g fill="#000000" fill-opacity="1"><g transform="translate(261.920913, 77.773919)"><g><path d="M 7.960938 0 L 14.601562 0 L 14.601562 -16.945312 L 21.636719 -16.945312 L 21.636719 -23.121094 L 0.925781 -23.121094 L 0.925781 -16.945312 L 7.960938 -16.945312 Z M 7.960938 0 "/></g></g></g><g fill="#000000" fill-opacity="1"><g transform="translate(284.474934, 77.773919)"><g><path d="M 13.707031 0.496094 C 21.074219 0.496094 26.292969 -4.492188 26.292969 -11.5625 C 26.292969 -18.628906 21.074219 -23.617188 13.707031 -23.617188 C 6.34375 -23.617188 1.125 -18.628906 1.125 -11.5625 C 1.125 -4.492188 6.34375 0.496094 13.707031 0.496094 Z M 7.894531 -11.5625 C 7.894531 -15.03125 10.304688 -17.441406 13.707031 -17.441406 C 17.144531 -17.441406 19.523438 -15.03125 19.523438 -11.5625 C 19.523438 -8.09375 17.144531 -5.679688 13.707031 -5.679688 C 10.304688 -5.679688 7.894531 -8.09375 7.894531 -11.5625 Z M 7.894531 -11.5625 "/></g></g></g><g fill="#000000" fill-opacity="1"><g transform="translate(311.916203, 77.773919)"><g><path d="M 2.445312 0 L 9.117188 0 L 9.117188 -6.574219 L 11.628906 -6.574219 L 14.929688 0 L 22.496094 0 L 18.234375 -7.796875 C 20.679688 -9.148438 22.066406 -11.59375 22.066406 -14.832031 C 22.066406 -19.953125 18.597656 -23.121094 12.980469 -23.121094 L 2.445312 -23.121094 Z M 8.984375 -11.890625 L 8.984375 -17.671875 L 12.089844 -17.671875 C 14.203125 -17.671875 15.359375 -16.648438 15.359375 -14.796875 C 15.359375 -12.949219 14.203125 -11.890625 12.089844 -11.890625 Z M 8.984375 -11.890625 "/></g></g></g><g fill="#000000" fill-opacity="1"><g transform="translate(335.692035, 77.773919)"><g><path d="M 8.589844 0 L 15.226562 0 L 15.226562 -8.058594 L 23.652344 -23.121094 L 16.085938 -23.121094 L 11.890625 -14.832031 L 10.109375 -18.332031 L 7.664062 -23.121094 L 0.164062 -23.121094 L 8.589844 -8.027344 Z M 8.589844 0 "/></g></g></g><g fill="#000000" fill-opacity="1"><g transform="translate(118.308262, 116.466343)"><g><path d="M 10.734375 0.496094 C 16.484375 0.496094 19.886719 -2.214844 19.886719 -6.773438 C 19.886719 -10.605469 17.410156 -12.851562 11.792969 -14.105469 C 8.820312 -14.765625 7.730469 -15.492188 7.730469 -16.679688 C 7.730469 -17.804688 8.71875 -18.5 10.273438 -18.5 C 12.121094 -18.5 13.179688 -17.539062 13.179688 -15.789062 L 19.457031 -15.789062 C 19.457031 -20.546875 15.824219 -23.617188 10.140625 -23.617188 C 4.691406 -23.617188 1.320312 -20.910156 1.320312 -16.550781 C 1.320312 -12.652344 3.863281 -10.238281 9.085938 -9.25 C 11.890625 -8.6875 13.246094 -7.828125 13.246094 -6.507812 C 13.246094 -5.351562 12.253906 -4.691406 10.636719 -4.691406 C 8.71875 -4.691406 7.597656 -5.714844 7.597656 -7.5 L 1.15625 -7.5 C 1.15625 -2.511719 4.722656 0.496094 10.734375 0.496094 Z M 10.734375 0.496094 "/></g></g></g><g fill="#000000" fill-opacity="1"><g transform="translate(139.409308, 116.466343)"><g><path d="M 8.589844 0 L 15.226562 0 L 15.226562 -8.058594 L 23.652344 -23.121094 L 16.085938 -23.121094 L 11.890625 -14.832031 L 10.109375 -18.332031 L 7.664062 -23.121094 L 0.164062 -23.121094 L 8.589844 -8.027344 Z M 8.589844 0 "/></g></g></g><g fill="#000000" fill-opacity="1"><g transform="translate(163.218172, 116.466343)"><g><path d="M 10.734375 0.496094 C 16.484375 0.496094 19.886719 -2.214844 19.886719 -6.773438 C 19.886719 -10.605469 17.410156 -12.851562 11.792969 -14.105469 C 8.820312 -14.765625 7.730469 -15.492188 7.730469 -16.679688 C 7.730469 -17.804688 8.71875 -18.5 10.273438 -18.5 C 12.121094 -18.5 13.179688 -17.539062 13.179688 -15.789062 L 19.457031 -15.789062 C 19.457031 -20.546875 15.824219 -23.617188 10.140625 -23.617188 C 4.691406 -23.617188 1.320312 -20.910156 1.320312 -16.550781 C 1.320312 -12.652344 3.863281 -10.238281 9.085938 -9.25 C 11.890625 -8.6875 13.246094 -7.828125 13.246094 -6.507812 C 13.246094 -5.351562 12.253906 -4.691406 10.636719 -4.691406 C 8.71875 -4.691406 7.597656 -5.714844 7.597656 -7.5 L 1.15625 -7.5 C 1.15625 -2.511719 4.722656 0.496094 10.734375 0.496094 Z M 10.734375 0.496094 "/></g></g></g><g fill="#000000" fill-opacity="1"><g transform="translate(184.319219, 116.466343)"><g><path d="M 7.960938 0 L 14.601562 0 L 14.601562 -16.945312 L 21.636719 -16.945312 L 21.636719 -23.121094 L 0.925781 -23.121094 L 0.925781 -16.945312 L 7.960938 -16.945312 Z M 7.960938 0 "/></g></g></g><g fill="#000000" fill-opacity="1"><g transform="translate(206.873239, 116.466343)"><g><path d="M 2.445312 0 L 18.664062 0 L 18.664062 -5.449219 L 9.050781 -5.449219 L 9.050781 -9.019531 L 17.410156 -9.019531 L 17.410156 -14.371094 L 9.050781 -14.371094 L 9.050781 -17.738281 L 18.300781 -17.738281 L 18.300781 -23.121094 L 2.445312 -23.121094 Z M 2.445312 0 "/></g></g></g><g fill="#000000" fill-opacity="1"><g transform="translate(227.016665, 116.466343)"><g><path d="M 2.445312 0 L 9.050781 0 L 9.050781 -11.726562 L 13.511719 -5.484375 L 17.835938 -5.484375 L 22.265625 -11.695312 L 22.265625 0 L 28.871094 0 L 28.871094 -23.121094 L 23.453125 -23.121094 L 15.65625 -12.121094 L 7.894531 -23.121094 L 2.445312 -23.121094 Z M 2.445312 0 "/></g></g></g></svg>